<svg viewBox="0 0 50 44" xmlns="http://www.w3.org/2000/svg">
  <path
    d="M47.311 27.6955C46.4686 27.6955 45.7849 28.3822 45.7849 29.2283V39.9576H3.05233V21.5644H19.8401C20.6826 21.5644 21.3663 20.8777 21.3663 20.0316C21.3663 19.1855 20.6826 18.4989 19.8401 18.4989H3.05233V12.3678H19.8401C20.6826 12.3678 21.3663 11.6811 21.3663 10.835C21.3663 9.98893 20.6826 9.30225 19.8401 9.30225H3.05233C1.36744 9.30225 0 10.6756 0 12.3678V39.9576C0 41.6498 1.36744 43.0232 3.05233 43.0232H45.7849C47.4698 43.0232 48.8372 41.6498 48.8372 39.9576V29.2283C48.8372 28.3822 48.1535 27.6955 47.311 27.6955Z" />
  <path
    d="M14.7285 27.907H8.52695C7.67114 27.907 6.97656 28.6884 6.97656 29.6512C6.97656 30.614 7.67114 31.3954 8.52695 31.3954H14.7285C15.5843 31.3954 16.2789 30.614 16.2789 29.6512C16.2789 28.6884 15.5843 27.907 14.7285 27.907Z" />
  <path fill-rule="evenodd" clip-rule="evenodd"
    d="M38.3926 0.1248L49.0758 4.83422C49.6374 5.08225 50.0006 5.65052 50.0006 6.27844V12.5577C50.0006 21.2073 46.8964 26.2558 38.5514 31.1881C38.3163 31.3263 38.0538 31.3953 37.7913 31.3953C37.5288 31.3953 37.2663 31.3263 37.0313 31.1881C28.6862 26.2432 25.582 21.1947 25.582 12.5577V6.27844C25.582 5.65052 25.9453 5.08225 26.5038 4.83422L37.187 0.1248C37.5746 -0.0415999 38.005 -0.0415999 38.3926 0.1248ZM37.7898 28.0044C44.6148 23.7974 46.9468 19.8069 46.9468 12.5576V7.3144L37.7898 3.27686L28.6328 7.3144V12.5576C28.6328 19.7975 30.9648 23.7879 37.7898 28.0044Z" />
  <path
    d="M42.4773 9.62633C41.8524 9.11793 40.9396 9.21662 40.4338 9.85959L35.8643 15.7391L34.0562 12.9578C33.6056 12.27 32.7016 12.0876 32.0417 12.5421C31.3761 12.9997 31.1929 13.9298 31.6377 14.6146L34.5445 19.1005C34.8033 19.4982 35.2277 19.7434 35.6928 19.7674C35.7131 19.7674 35.7364 19.7674 35.7538 19.7674C36.1927 19.7674 36.6113 19.564 36.8904 19.2051L42.7041 11.7287C43.2041 11.0827 43.1052 10.1437 42.4773 9.62633Z" />
</svg>