<svg viewBox="0 0 62 62" xmlns="http://www.w3.org/2000/svg">
  <path
    d="M36.2527 7.17653C37.1539 6.93511 38.0939 6.87357 39.0189 6.99543C39.9439 7.11728 40.8358 7.42015 41.6437 7.88673C42.4517 8.35331 43.1598 8.97447 43.7277 9.71474C44.2955 10.455 44.712 11.2999 44.9534 12.2011L51.9749 38.4013C52.2163 39.3025 52.2778 40.2424 52.156 41.1674C52.0341 42.0924 51.7313 42.9844 51.2647 43.7923C50.7981 44.6003 50.1769 45.3084 49.4367 45.8762C48.6964 46.4441 47.8515 46.8606 46.9503 47.1019L30.7321 51.4471C28.9124 51.9348 26.9735 51.6797 25.3418 50.7379C23.7102 49.7961 22.5194 48.2448 22.0315 46.4251L15.0074 20.2224C14.766 19.321 14.7046 18.3809 14.8266 17.4557C14.9486 16.5306 15.2517 15.6386 15.7185 14.8306C16.1854 14.0226 16.8068 13.3146 17.5474 12.7468C18.2879 12.179 19.1331 11.7628 20.0345 11.5217L36.2527 7.17653ZM14.9841 30.1165L19.536 47.0916C19.9834 48.7734 20.8778 50.3026 22.1245 51.5169L20.98 51.4574C19.0987 51.3586 17.3336 50.5166 16.0731 49.1165C14.8125 47.7164 14.1597 45.873 14.2582 43.9916L14.9841 30.1165ZM37.255 10.9198L21.0369 15.2649C20.6272 15.3747 20.2432 15.564 19.9067 15.8222C19.5702 16.0803 19.2879 16.4022 19.0758 16.7695C18.8638 17.1367 18.7261 17.5422 18.6708 17.9627C18.6154 18.3831 18.6434 18.8104 18.7532 19.22L25.7747 45.4202C25.9963 46.247 26.5371 46.9519 27.2783 47.3801C28.0194 47.8083 28.9003 47.9248 29.7272 47.7039L45.948 43.3587C46.3576 43.249 46.7416 43.0596 47.0781 42.8015C47.4146 42.5433 47.6969 42.2214 47.909 41.8542C48.121 41.4869 48.2587 41.0814 48.314 40.661C48.3694 40.2405 48.3414 39.8133 48.2316 39.4036L41.2101 13.2034C40.9885 12.3767 40.4477 11.6717 39.7066 11.2435C38.9654 10.8153 38.0846 10.6989 37.2576 10.9198M12.5945 26.2984L11.6775 43.8547C11.5819 45.6604 11.9875 47.3758 12.7728 48.8664L11.7033 48.453C10.8322 48.1187 10.0356 47.6161 9.35877 46.9739C8.68197 46.3317 8.13829 45.5625 7.75879 44.7102C7.37929 43.8579 7.17139 42.9392 7.14697 42.0065C7.12254 41.0738 7.28208 40.1455 7.61645 39.2744L12.5945 26.2984ZM25.1599 18.1738C25.4876 18.0859 25.8294 18.0635 26.1658 18.1077C26.5022 18.1519 26.8266 18.262 27.1204 18.4316C27.4143 18.6012 27.6719 18.827 27.8784 19.0961C28.085 19.3653 28.2366 19.6725 28.3245 20.0002C28.4123 20.3279 28.4348 20.6697 28.3905 21.0061C28.3463 21.3425 28.2362 21.6669 28.0667 21.9607C27.8971 22.2546 27.6712 22.5122 27.4021 22.7188C27.1329 22.9254 26.8258 23.0769 26.498 23.1648C25.8362 23.3422 25.131 23.2495 24.5375 22.907C23.944 22.5645 23.5109 22.0002 23.3335 21.3384C23.156 20.6765 23.2487 19.9713 23.5913 19.3778C23.9338 18.7843 24.498 18.3512 25.1599 18.1738Z" />
</svg>