<svg viewBox="0 0 46 46" xmlns="http://www.w3.org/2000/svg">
  <path
    d="M32.8543 13.8858L23.9968 0.833305C23.2276 -0.297529 22.006 -0.274529 21.2789 0.880582L13.1139 13.8385C12.3869 14.9936 12.8827 15.9392 14.2192 15.9392H16.6125V20.4446C16.6125 21.1224 16.8817 21.7724 17.361 22.2517C17.8403 22.7309 18.4903 23.0002 19.1681 23.0002H26.8347C27.5125 23.0002 28.1625 22.7309 28.6418 22.2517C29.121 21.7724 29.3903 21.1224 29.3903 20.4446V15.9405H31.8155C33.1533 15.9405 33.6223 15.0166 32.8543 13.8858ZM4.66655 30.1238H1.83883C0.592996 30.1238 0.0742188 29.214 0.0742188 28.3336C0.0742188 27.4264 0.72333 26.546 1.83883 26.546H11.3826C12.4993 26.546 13.1472 27.4264 13.1472 28.3336C13.1472 29.2153 12.6284 30.1238 11.3826 30.1238H8.55738V43.1431C8.55738 44.4413 7.72811 45.1671 6.61261 45.1671C5.49711 45.1671 4.66783 44.4413 4.66783 43.1431L4.66655 30.1238ZM13.2852 35.778C13.2852 30.3832 16.9153 26.2317 22.2066 26.2317C27.4187 26.2317 31.1293 30.5135 31.1293 35.778C31.1293 41.1459 27.5247 45.3242 22.2066 45.3242C16.9409 45.3242 13.2852 41.1459 13.2852 35.778ZM27.0826 35.778C27.0826 32.6398 25.4483 29.8107 22.2066 29.8107C18.9649 29.8107 17.3306 32.6398 17.3306 35.778C17.3306 38.9417 18.9138 41.7426 22.2066 41.7426C25.4994 41.7426 27.0826 38.9417 27.0826 35.778ZM32.747 28.5662C32.747 27.3472 33.474 26.5448 34.7723 26.5448H39.3608C43.1749 26.5448 46.0014 29.0326 46.0014 32.7433C46.0014 36.5293 43.0714 38.8906 39.5179 38.8906H36.6391V43.1444C36.6391 44.4426 35.8098 45.1684 34.6956 45.1684C33.5788 45.1684 32.7483 44.4426 32.7483 43.1444L32.747 28.5662ZM36.6391 35.4662H39.2854C40.9171 35.4662 41.9547 34.2728 41.9547 32.7177C41.9547 31.1601 40.9171 29.9679 39.2854 29.9679H36.6391V35.4662Z" />
</svg>