<svg viewBox="0 0 50 35" xmlns="http://www.w3.org/2000/svg">
  <path fill-rule="evenodd" clip-rule="evenodd"
    d="M31.6328 28.5714C31.6328 25.1954 34.3793 22.449 37.7553 22.449C41.1313 22.449 43.8777 25.1954 43.8777 28.5714C43.8777 31.9474 41.1318 34.6939 37.7553 34.6939C34.3793 34.6939 31.6328 31.9474 31.6328 28.5714ZM34.6953 28.5712C34.6953 30.2595 36.0683 31.6325 37.7565 31.6325C39.4448 31.6325 40.8178 30.2596 40.8178 28.5712C40.8178 26.883 39.4448 25.51 37.7565 25.51C36.0683 25.51 34.6953 26.883 34.6953 28.5712Z" />
  <path fill-rule="evenodd" clip-rule="evenodd"
    d="M11.2227 28.5717C11.2227 25.1957 13.9691 22.4492 17.3451 22.4492C20.7211 22.4492 23.4676 25.1957 23.4676 28.5717C23.4676 31.9477 20.7211 34.6941 17.3451 34.6941C13.9691 34.6941 11.2227 31.9477 11.2227 28.5717ZM14.2852 28.5715C14.2852 30.2597 15.6581 31.6327 17.3464 31.6327C19.0346 31.6327 20.4076 30.2598 20.4076 28.5715C20.4076 26.8832 19.0341 25.5103 17.3464 25.5103C15.6581 25.5103 14.2852 26.8832 14.2852 28.5715Z" />
  <path
    d="M40.9067 5.85977C40.6226 5.39516 40.0451 5.10205 39.4134 5.10205H31.6133V7.85397H38.383L42.9329 15.3061L45.9194 14.0696L40.9067 5.85977Z" />
  <rect x="21.4297" y="25.5103" width="11.2245" height="4.08163" />
  <path
    d="M10.5662 25.5103H4.74241C3.81447 25.5103 3.0625 26.4239 3.0625 27.5511C3.0625 28.6784 3.81457 29.5919 4.74241 29.5919H10.5663C11.4942 29.5919 12.2462 28.6782 12.2462 27.5511C12.2462 26.4238 11.4941 25.5103 10.5662 25.5103Z" />
  <path
    d="M49.6733 17.5633L46.6175 13.4888C46.3239 13.0963 45.8708 12.8668 45.3907 12.8668H34.1014V1.60832C34.1014 0.719925 33.4059 0 32.5479 0H6.65508C5.79696 0 5.10156 0.720024 5.10156 1.60832C5.10156 2.49661 5.79706 3.21663 6.65508 3.21663H30.9943V14.4751C30.9943 15.3635 31.6898 16.0835 32.5478 16.0835H44.6299L46.8924 19.1007V27.3956H42.5942C41.736 27.3956 41.0406 28.1156 41.0406 29.0039C41.0406 29.8923 41.7361 30.6122 42.5942 30.6122H48.4459C49.304 30.6122 49.9994 29.8922 49.9995 29.0039V18.5498C49.9995 18.1927 49.8846 17.8453 49.6733 17.5633Z" />
  <path
    d="M10.6972 18.3672H3.58511C2.73111 18.3672 2.03906 19.2808 2.03906 20.408C2.03906 21.5353 2.73121 22.4488 3.58511 22.4488H10.6971C11.5511 22.4488 12.2431 21.5352 12.2431 20.408C12.2432 19.2808 11.5511 18.3672 10.6972 18.3672Z" />
  <path
    d="M15.7001 12.2449H1.64682C0.737262 12.2449 0 13.1585 0 14.2858C0 15.413 0.737262 16.3265 1.64682 16.3265H15.7001C16.6098 16.3265 17.3469 15.4129 17.3469 14.2858C17.3469 13.1586 16.6098 12.2449 15.7001 12.2449Z" />
  <path
    d="M17.7392 6.12256H3.68588C2.77622 6.12256 2.03906 7.03621 2.03906 8.16337C2.03906 9.29067 2.77632 10.2042 3.68588 10.2042H17.7392C18.6488 10.2042 19.386 9.29054 19.386 8.16337C19.3861 7.03621 18.6488 6.12256 17.7392 6.12256Z" />
</svg>