<svg viewBox="0 0 52 52" xmlns="http://www.w3.org/2000/svg">
  <g clip-path="url(#clip0_1587_5231)">
    <path
      d="M39.0013 8.66683H4.33464V4.3335H39.0013V8.66683ZM37.918 28.1668H34.668V39.0002L42.4896 43.6802L44.1146 41.0368L37.918 37.3752V28.1668ZM52.0013 36.8335C52.0013 45.2185 45.2196 52.0002 36.8346 52.0002C29.1863 52.0002 22.903 46.3452 21.8413 39.0002H4.33464V26.0002H2.16797V21.6668L4.33464 10.8335H39.0013L41.168 21.6668V22.2952C47.4296 24.1802 52.0013 29.9652 52.0013 36.8335ZM6.58797 21.6668H36.748L35.448 15.1668H7.88797L6.58797 21.6668ZM8.66797 34.6668H21.668V26.0002H8.66797V34.6668ZM47.668 36.8335C47.668 30.8535 42.8146 26.0002 36.8346 26.0002C30.8546 26.0002 26.0013 30.8535 26.0013 36.8335C26.0013 42.8135 30.8546 47.6668 36.8346 47.6668C42.8146 47.6668 47.668 42.8135 47.668 36.8335Z" />
  </g>

</svg>