<svg viewBox="0 0 53 55" xmlns="http://www.w3.org/2000/svg">
  <path fill-rule="evenodd" clip-rule="evenodd"
    d="M26.3987 5.8667C27.4517 5.8667 28.3054 6.70721 28.3054 7.74403V9.06278C29.0551 9.18629 29.7708 9.47483 30.3974 9.91121C31.2582 10.5108 31.9078 11.3596 32.2559 12.3395C32.6035 13.3182 32.0795 14.3891 31.0855 14.7314C30.0915 15.0736 29.0039 14.5577 28.6563 13.579C28.5699 13.3358 28.4088 13.1252 28.1952 12.9765C27.9816 12.8277 27.7262 12.7482 27.4646 12.749L27.4588 12.749H25.0035C24.7757 12.7504 24.5562 12.8341 24.3867 12.9843C24.2167 13.135 24.1091 13.3421 24.0843 13.566C24.0595 13.7899 24.1194 14.015 24.2526 14.1982C24.3851 14.3806 24.581 14.5088 24.8031 14.5585C24.8021 14.5583 24.804 14.5587 24.8031 14.5585L28.5526 15.3697C29.7734 15.6378 30.8512 16.3393 31.58 17.3404C32.3087 18.3414 32.6373 19.5717 32.503 20.7962C32.3686 22.0207 31.7808 23.1536 30.8518 23.9783C30.1328 24.6166 29.2484 25.0358 28.3054 25.195V26.5174C28.3054 27.5542 27.4517 28.3947 26.3987 28.3947C25.3457 28.3947 24.492 27.5542 24.492 26.5174V25.1986C23.7423 25.0751 23.0266 24.7866 22.4 24.3502C21.5392 23.7506 20.8896 22.9018 20.5415 21.9219C20.1939 20.9432 20.7179 19.8723 21.7119 19.53C22.7059 19.1878 23.7935 19.7037 24.1411 20.6824C24.2275 20.9255 24.3886 21.1362 24.6022 21.2849C24.8158 21.4337 25.0712 21.5132 25.3328 21.5124L25.3386 21.5124L27.4539 21.5124C27.766 21.5103 28.0665 21.3955 28.2983 21.1897C28.5309 20.9833 28.6781 20.6996 28.7117 20.393C28.7453 20.0864 28.663 19.7784 28.4806 19.5278C28.2986 19.2777 28.0296 19.1023 27.7248 19.0349C27.7241 19.0347 27.7256 19.035 27.7248 19.0349L23.9723 18.223C22.8341 17.9719 21.8298 17.3168 21.1512 16.3828C20.4725 15.4488 20.1672 14.3014 20.2934 13.1597C20.4196 12.0181 20.9685 10.9622 21.8353 10.1938C22.5774 9.53605 23.5078 9.12844 24.492 9.02216V7.74403C24.492 6.70721 25.3457 5.8667 26.3987 5.8667ZM27.4588 8.99434V10.8717L27.453 8.99435C27.4541 8.99434 27.4577 8.99434 27.4588 8.99434ZM25.3386 25.2671V23.3897L25.3444 25.2671C25.3433 25.2671 25.3397 25.2671 25.3386 25.2671ZM10.192 18.0694C10.4449 18.0694 10.6874 17.9705 10.8661 17.7944C11.0449 17.6184 11.1454 17.3796 11.1454 17.1307C11.1454 16.8818 11.0449 16.643 10.8661 16.467C10.6874 16.2909 10.4449 16.192 10.192 16.192C9.93919 16.192 9.69671 16.2909 9.51792 16.467C9.33914 16.643 9.2387 16.8818 9.2387 17.1307C9.2387 17.3796 9.33914 17.6184 9.51792 17.7944C9.69671 17.9705 9.93919 18.0694 10.192 18.0694ZM8.16971 15.1395C8.70606 14.6114 9.43352 14.3147 10.192 14.3147C10.9505 14.3147 11.678 14.6114 12.2144 15.1395C12.7507 15.6676 13.052 16.3839 13.052 17.1307C13.052 17.8775 12.7507 18.5938 12.2144 19.1219C11.678 19.65 10.9505 19.9467 10.192 19.9467C9.43352 19.9467 8.70606 19.65 8.16971 19.1219C7.63335 18.5938 7.33203 17.8775 7.33203 17.1307C7.33203 16.3839 7.63335 15.6676 8.16971 15.1395ZM42.6054 18.0694C42.8582 18.0694 43.1007 17.9705 43.2795 17.7944C43.4583 17.6184 43.5587 17.3796 43.5587 17.1307C43.5587 16.8818 43.4583 16.643 43.2795 16.467C43.1007 16.2909 42.8582 16.192 42.6054 16.192C42.3525 16.192 42.11 16.2909 41.9313 16.467C41.7525 16.643 41.652 16.8818 41.652 17.1307C41.652 17.3796 41.7525 17.6184 41.9313 17.7944C42.11 17.9705 42.3525 18.0694 42.6054 18.0694ZM40.583 15.1395C41.1194 14.6114 41.8469 14.3147 42.6054 14.3147C43.3639 14.3147 44.0913 14.6114 44.6277 15.1395C45.1641 15.6676 45.4654 16.3839 45.4654 17.1307C45.4654 17.8775 45.1641 18.5938 44.6277 19.1219C44.0913 19.65 43.3639 19.9467 42.6054 19.9467C41.8469 19.9467 41.1194 19.65 40.583 19.1219C40.0467 18.5938 39.7454 17.8775 39.7454 17.1307C39.7454 16.3839 40.0467 15.6676 40.583 15.1395ZM16.8654 37.7814C17.9184 37.7814 18.772 38.6219 18.772 39.6587V47.168C18.772 48.2049 17.9184 49.0454 16.8654 49.0454C15.8123 49.0454 14.9587 48.2049 14.9587 47.168V39.6587C14.9587 38.6219 15.8123 37.7814 16.8654 37.7814ZM35.932 37.7814C36.9851 37.7814 37.8387 38.6219 37.8387 39.6587V47.168C37.8387 48.2049 36.9851 49.0454 35.932 49.0454C34.879 49.0454 34.0254 48.2049 34.0254 47.168V39.6587C34.0254 38.6219 34.879 37.7814 35.932 37.7814ZM26.3987 41.536C27.4517 41.536 28.3054 42.3765 28.3054 43.4134V50.9227C28.3054 51.9595 27.4517 52.8 26.3987 52.8C25.3457 52.8 24.492 51.9595 24.492 50.9227V43.4134C24.492 42.3765 25.3457 41.536 26.3987 41.536Z" />
  <path fill-rule="evenodd" clip-rule="evenodd"
    d="M1.65694 1.64671C2.71786 0.59234 4.15677 0 5.65714 0H47.1429C48.6432 0 50.0821 0.59234 51.1431 1.64671C52.204 2.70108 52.8 4.13112 52.8 5.62222V28.1111C52.8 29.6022 52.204 31.0323 51.1431 32.0866C50.0821 33.141 48.6432 33.7333 47.1429 33.7333H5.65714C4.15677 33.7333 2.71786 33.141 1.65694 32.0866C0.596019 31.0323 0 29.6022 0 28.1111V5.62222C0 4.13112 0.596019 2.70108 1.65694 1.64671ZM5.65714 3.74815C5.15702 3.74815 4.67738 3.94559 4.32374 4.29705C3.9701 4.64851 3.77143 5.12519 3.77143 5.62222V28.1111C3.77143 28.6081 3.9701 29.0848 4.32374 29.4363C4.67738 29.7877 5.15702 29.9852 5.65714 29.9852H47.1429C47.643 29.9852 48.1226 29.7877 48.4763 29.4363C48.8299 29.0848 49.0286 28.6081 49.0286 28.1111V5.62222C49.0286 5.12519 48.8299 4.64851 48.4763 4.29705C48.1226 3.94559 47.643 3.74815 47.1429 3.74815H5.65714Z" />
</svg>