<svg viewBox="0 0 50 50" xmlns="http://www.w3.org/2000/svg">
  <path fill-rule="evenodd" clip-rule="evenodd"
    d="M0 25C0 11.2156 11.2156 0 25 0C38.7844 0 50 11.2156 50 25C50 38.7844 38.7844 50 25 50C11.2156 50 0 38.7844 0 25ZM3.125 25C3.125 37.0625 12.9375 46.875 25 46.875C37.0625 46.875 46.875 37.0625 46.875 25C46.875 12.9375 37.0625 3.125 25 3.125C12.9375 3.125 3.125 12.9375 3.125 25Z" />
  <path
    d="M25.5109 23.923C22.8562 23.923 20.613 22.4691 20.613 20.7484C20.613 19.0278 22.8562 17.5738 25.5109 17.5738C27.013 17.5738 28.404 18.031 29.3248 18.8246C29.9975 19.4056 31.026 19.3516 31.6301 18.6913C32.2309 18.0373 32.1689 17.0341 31.493 16.45C30.3501 15.4627 28.8154 14.796 27.1436 14.5325V12.8119C27.1436 11.9357 26.4121 11.2246 25.5109 11.2246C24.6097 11.2246 23.8783 11.9357 23.8783 12.8119V14.5262C20.1558 15.1167 17.3477 17.6818 17.3477 20.7484C17.3477 24.25 21.0113 27.0976 25.5109 27.0976C28.1656 27.0976 30.4089 28.5516 30.4089 30.2722C30.4089 31.9929 28.1656 33.4468 25.5109 33.4468C24.0089 33.4468 22.6179 32.9897 21.697 32.196C21.0244 31.6119 19.9926 31.6691 19.3917 32.3294C18.7909 32.9833 18.853 33.9865 19.5289 34.5706C20.6717 35.5611 22.2064 36.2246 23.8783 36.4913V38.2087C23.8783 39.0849 24.6097 39.796 25.5109 39.796C26.4121 39.796 27.1436 39.0849 27.1436 38.2087V36.4945C30.866 35.904 33.6742 33.3389 33.6742 30.2722C33.6742 26.7706 30.0105 23.923 25.5109 23.923Z" />
</svg>